HIERARCHY
ROOT joint_Root
{
	OFFSET 0.0 0.0 0.0
	CHANNELS 6 Xposition Yposition Zposition Zrotation Xrotation Yrotation 
	JOINT Hips
	{
		OFFSET 4.5925 91.4895 -427.239
		CHANNELS 6 Xposition Yposition Zposition Zrotation Xrotation Yrotation 
		JOINT Spine
		{
			OFFSET 15.7357 0.0 0.0
			CHANNELS 6 Xposition Yposition Zposition Zrotation Xrotation Yrotation 
			JOINT Chest
			{
				OFFSET 8.98455 -0.406207 0.0
				CHANNELS 6 Xposition Yposition Zposition Zrotation Xrotation Yrotation 
				JOINT Neck
				{
					OFFSET 16.3773 0.0 0.0
					CHANNELS 6 Xposition Yposition Zposition Zrotation Xrotation Yrotation 
					JOINT Head
					{
						OFFSET 6.45672 0.0 0.0
						CHANNELS 6 Xposition Yposition Zposition Zrotation Xrotation Yrotation 
						End Site
						{
							OFFSET 0.0 0.0 0.0
						}
					}
				}
				JOINT Shoulder_L
				{
					OFFSET 12.9942 -0.242716 4.98039
					CHANNELS 6 Xposition Yposition Zposition Zrotation Xrotation Yrotation 
					JOINT UpperArm_L
					{
						OFFSET 5.34809 0.0 0.0
						CHANNELS 6 Xposition Yposition Zposition Zrotation Xrotation Yrotation 
						JOINT LowerArm_L
						{
							OFFSET 24.3286 1.87007e-05 0.0
							CHANNELS 6 Xposition Yposition Zposition Zrotation Xrotation Yrotation 
							JOINT Hand_L
							{
								OFFSET 22.2916 0.0 0.0
								CHANNELS 6 Xposition Yposition Zposition Zrotation Xrotation Yrotation 
								End Site
								{
									OFFSET 0.0 0.0 0.0
								}
							}
						}
					}
				}
				JOINT Shoulder_R
				{
					OFFSET 12.9945 -0.242716 -4.98039
					CHANNELS 6 Xposition Yposition Zposition Zrotation Xrotation Yrotation 
					JOINT UpperArm_R
					{
						OFFSET -5.34813 0.0 0.0
						CHANNELS 6 Xposition Yposition Zposition Zrotation Xrotation Yrotation 
						JOINT LowerArm_R
						{
							OFFSET -24.3289 0.000322201 0.0
							CHANNELS 6 Xposition Yposition Zposition Zrotation Xrotation Yrotation 
							JOINT Hand_R
							{
								OFFSET -22.2915 -0.000108084 0.0
								CHANNELS 6 Xposition Yposition Zposition Zrotation Xrotation Yrotation 
								End Site
								{
									OFFSET 0.0 0.0 0.0
								}
							}
						}
					}
				}
			}
		}
		JOINT UpperLeg_L
		{
			OFFSET -2.19248 -6.46944 0.0
			CHANNELS 6 Xposition Yposition Zposition Zrotation Xrotation Yrotation 
			JOINT LowerLeg_L
			{
				OFFSET 39.0811 0.0 -1.23785e-05
				CHANNELS 6 Xposition Yposition Zposition Zrotation Xrotation Yrotation 
				JOINT Foot_L
				{
					OFFSET 40.9854 0.0 -1.26872e-05
					CHANNELS 6 Xposition Yposition Zposition Zrotation Xrotation Yrotation 
					JOINT Toes_L
					{
						OFFSET 11.7543 0.0 0.0
						CHANNELS 6 Xposition Yposition Zposition Zrotation Xrotation Yrotation 
						End Site
						{
							OFFSET 0.0 0.0 0.0
						}
					}
				}
			}
		}
		JOINT UpperLeg_R
		{
			OFFSET -2.19251 6.46944 0.0
			CHANNELS 6 Xposition Yposition Zposition Zrotation Xrotation Yrotation 
			JOINT LowerLeg_R
			{
				OFFSET -39.0811 -0.00228153 -0.0401928
				CHANNELS 6 Xposition Yposition Zposition Zrotation Xrotation Yrotation 
				JOINT Foot_R
				{
					OFFSET -40.9854 0.0 0.0
					CHANNELS 6 Xposition Yposition Zposition Zrotation Xrotation Yrotation 
					JOINT Toes_R
					{
						OFFSET -11.7543 0.0 0.0
						CHANNELS 6 Xposition Yposition Zposition Zrotation Xrotation Yrotation 
						End Site
						{
							OFFSET 0.0 0.0 0.0
						}
					}
				}
			}
		}
	}
}
MOTION
Frames:	5
Frame Time:	0.0333333
0.000000 0.000000 0.000000 0.000000 0.000000 -0.000000 -1.584020 90.315000 2.518780 89.653500 -4.482640 10.953100 15.735700 0.000005 -0.000001 87.010500 81.913100 -86.639100 8.984550 -0.406207 -0.000000 8.389340 -0.837580 0.803604 16.377300 -0.000001 -0.000001 7.920920 -2.767090 -1.013380 6.456720 -0.000001 -0.000000 -5.381170 -1.586310 -5.618100 12.994200 -0.242716 4.980390 -92.212600 7.747900 -74.008600 5.348090 -0.000007 -0.000001 -61.254000 38.922800 -17.250000 24.328600 0.000019 0.000005 9.538770 24.162700 -22.319100 22.291600 -0.000001 0.000005 6.770310 5.304180 -0.045290 12.994500 -0.242716 -4.980390 88.204200 11.630800 -81.160300 -5.348130 -0.000001 -0.000004 -61.153600 38.134300 -11.380800 -24.328900 0.000322 -0.000009 1.291440 3.813020 -18.741000 -22.291500 -0.000108 -0.000004 13.014800 5.407550 -3.184420 -2.192480 -6.469440 -0.000000 -173.798000 -12.597900 4.147120 39.081100 -0.000007 -0.000012 -0.216920 0.366335 30.631600 40.985400 -0.000006 -0.000013 0.045189 5.804190 -73.382100 11.754300 -0.000000 0.000003 -0.000175 -0.001658 -16.640300 -2.192510 6.469440 -0.000001 172.939000 18.837200 -174.614000 -39.081100 -0.002282 -0.040193 -0.246409 0.432640 29.993000 -40.985400 0.000008 0.000006 3.550740 14.190800 -73.958000 -11.754300 -0.000006 -0.000006 -0.001132 -0.017267 -17.275300
0.000000 0.000000 0.000000 0.000000 0.000000 -0.000000 -1.576970 90.300800 2.518900 89.674500 -4.459010 11.046100 15.735700 0.000005 -0.000001 86.970400 81.924100 -86.555000 8.984550 -0.406207 -0.000000 8.367130 -0.847519 0.892033 16.377300 -0.000001 -0.000001 8.355470 -2.873280 -0.980742 6.456720 -0.000001 -0.000000 -4.709350 -1.725120 -5.871770 12.994200 -0.242716 4.980390 -92.212000 7.733930 -73.985200 5.348090 -0.000007 -0.000001 -61.214400 38.307200 -17.209000 24.328600 0.000019 0.000005 9.616960 24.197200 -22.459800 22.291600 -0.000001 0.000005 6.794580 5.303840 -0.035635 12.994500 -0.242716 -4.980390 88.197600 11.571000 -81.084000 -5.348130 -0.000001 -0.000004 -60.916200 37.826600 -11.450700 -24.328900 0.000322 -0.000009 1.302170 3.888830 -18.543300 -22.291500 -0.000108 -0.000004 13.003200 5.409900 -3.261770 -2.192480 -6.469440 -0.000000 -173.796000 -12.591900 4.209340 39.081100 -0.000007 -0.000012 -0.217452 0.366345 30.692500 40.985400 -0.000006 -0.000013 0.054032 5.822340 -73.412500 11.754300 -0.000000 0.000003 -0.000172 -0.001634 -16.639400 -2.192510 6.469440 -0.000001 172.884000 18.791400 -174.552000 -39.081100 -0.002282 -0.040193 -0.251739 0.440510 30.069900 -40.985400 0.000008 0.000006 3.537780 14.147600 -73.999600 -11.754300 -0.000006 -0.000006 -0.001278 -0.019277 -17.357000
0.000000 0.000000 0.000000 0.000000 0.000000 -0.000000 -1.584220 90.295900 2.510150 89.695600 -4.358330 11.153700 15.735700 0.000005 -0.000001 86.772700 81.919800 -86.305100 8.984550 -0.406207 -0.000000 8.373390 -0.903089 1.000410 16.377300 -0.000001 -0.000001 8.713550 -2.968100 -0.893784 6.456720 -0.000001 -0.000000 -3.979050 -1.798370 -6.323300 12.994200 -0.242716 4.980390 -92.215100 7.756600 -74.007900 5.348090 -0.000007 -0.000001 -61.265300 37.350700 -17.138800 24.328600 0.000019 0.000005 9.737690 24.212000 -22.706600 22.291600 -0.000001 0.000005 6.870130 5.303040 -0.013137 12.994500 -0.242716 -4.980390 88.201600 11.472900 -81.029300 -5.348130 -0.000001 -0.000004 -60.715400 37.542000 -11.518700 -24.328900 0.000322 -0.000009 1.300520 3.910700 -18.425000 -22.291500 -0.000108 -0.000004 13.183800 5.406690 -3.156330 -2.192480 -6.469440 -0.000000 -173.811000 -12.523700 4.287210 39.081100 -0.000007 -0.000012 -0.214889 0.361707 30.714800 40.985400 -0.000006 -0.000013 0.063562 5.839270 -73.413100 11.754300 -0.000000 0.000003 -0.000177 -0.001671 -16.640800 -2.192510 6.469440 -0.000001 172.816000 18.841900 -174.442000 -39.081100 -0.002282 -0.040193 -0.253845 0.443605 30.100200 -40.985400 0.000008 0.000006 3.534990 14.115800 -74.018400 -11.754300 -0.000006 -0.000006 -0.001214 -0.018395 -17.321200
0.000000 0.000000 0.000000 0.000000 0.000000 -0.000000 -1.589340 90.293200 2.466490 89.709100 -4.254310 11.160200 15.735700 0.000005 -0.000001 86.448700 81.960400 -85.922400 8.984550 -0.406207 -0.000000 8.288060 -0.989045 1.123350 16.377300 -0.000001 -0.000001 9.058240 -3.025490 -0.789739 6.456720 -0.000001 -0.000000 -3.236410 -1.790220 -6.850910 12.994200 -0.242716 4.980390 -92.203000 7.740390 -74.060000 5.348090 -0.000007 -0.000001 -61.387400 36.309400 -17.004500 24.328600 0.000019 0.000005 9.702840 23.720100 -23.027800 22.291600 -0.000001 0.000005 7.144210 5.302860 -0.007938 12.994500 -0.242716 -4.980390 88.219300 11.344900 -81.019100 -5.348130 -0.000001 -0.000004 -60.597400 37.245700 -11.549600 -24.328900 0.000322 -0.000009 1.271620 3.857780 -18.273300 -22.291500 -0.000108 -0.000004 13.250800 5.405530 -3.117890 -2.192480 -6.469440 -0.000000 -173.839000 -12.463600 4.215250 39.081100 -0.000007 -0.000012 -0.214836 0.360886 30.765700 40.985400 -0.000006 -0.000013 0.075007 5.866050 -73.395300 11.754300 -0.000000 0.000003 -0.000175 -0.001652 -16.640100 -2.192510 6.469440 -0.000001 172.826000 18.841900 -174.486000 -39.081100 -0.002282 -0.040193 -0.255735 0.445981 30.149400 -40.985400 0.000008 0.000006 3.517770 14.011500 -74.014900 -11.754300 -0.000006 -0.000006 -0.001198 -0.018180 -17.312400
0.000000 0.000000 0.000000 0.000000 0.000000 -0.000000 -1.596070 90.304600 2.439850 89.753100 -4.079190 11.197200 15.735700 0.000005 -0.000001 86.060100 82.009000 -85.490800 8.984550 -0.406207 -0.000000 8.184980 -1.091140 1.215620 16.377300 -0.000001 -0.000001 9.469190 -3.090040 -0.719431 6.456720 -0.000001 -0.000000 -2.600790 -1.804620 -7.255910 12.994200 -0.242716 4.980390 -92.178900 7.668080 -74.084900 5.348090 -0.000007 -0.000001 -61.426100 35.210500 -17.056800 24.328600 0.000019 0.000005 9.975950 23.744800 -23.596900 22.291600 -0.000001 0.000005 7.063150 5.303250 -0.019129 12.994500 -0.242716 -4.980390 88.229500 11.189700 -80.949800 -5.348130 -0.000001 -0.000004 -60.589400 37.044300 -11.521900 -24.328900 0.000322 -0.000009 1.295560 3.971820 -18.095900 -22.291500 -0.000108 -0.000004 13.172400 5.405610 -3.120510 -2.192480 -6.469440 -0.000000 -173.891000 -12.345300 4.232470 39.081100 -0.000007 -0.000012 -0.214931 0.361884 30.707400 40.985400 -0.000006 -0.000013 0.083116 5.928030 -73.333400 11.754300 -0.000000 0.000003 -0.000174 -0.001645 -16.639900 -2.192510 6.469440 -0.000001 172.764000 18.958500 -174.425000 -39.081100 -0.002282 -0.040193 -0.250650 0.437751 30.119600 -40.985400 0.000008 0.000006 3.517050 13.975900 -73.997000 -11.754300 -0.000006 -0.000006 -0.001052 -0.016139 -17.229500
